<mxfile host="app.diagrams.net" modified="2021-04-29T13:51:46.689Z" agent="5.0 (Macintosh; Intel Mac OS X 11_2_3) AppleWebKit/537.36 (KHTML, like Gecko) Chrome/89.0.4389.114 Safari/537.36" etag="Mnvf3rGjA1dt-QRZIi9G" version="14.4.8" type="github">
  <diagram id="dgWKxW_PN67MSb6J2tfW" name="Page-1">
    <mxGraphModel dx="1426" dy="754" grid="1" gridSize="10" guides="1" tooltips="1" connect="1" arrows="1" fold="1" page="1" pageScale="1" pageWidth="827" pageHeight="1169" math="0" shadow="0">
      <root>
        <mxCell id="0" />
        <mxCell id="1" parent="0" />
        <mxCell id="zfBXquAkik9O-GY_uFJq-1" value="" style="strokeWidth=1;shadow=0;dashed=0;align=center;html=1;shape=mxgraph.mockup.containers.browserWindow;rSize=0;strokeColor=#666666;strokeColor2=#008cff;strokeColor3=#c4c4c4;mainText=,;recursiveResize=0;" vertex="1" parent="1">
          <mxGeometry x="54" y="40" width="720" height="560" as="geometry" />
        </mxCell>
        <mxCell id="zfBXquAkik9O-GY_uFJq-2" value="Page 1" style="strokeWidth=1;shadow=0;dashed=0;align=center;html=1;shape=mxgraph.mockup.containers.anchor;fontSize=17;fontColor=#666666;align=left;" vertex="1" parent="zfBXquAkik9O-GY_uFJq-1">
          <mxGeometry x="60" y="12" width="110" height="26" as="geometry" />
        </mxCell>
        <mxCell id="zfBXquAkik9O-GY_uFJq-3" value="https://www.draw.io" style="strokeWidth=1;shadow=0;dashed=0;align=center;html=1;shape=mxgraph.mockup.containers.anchor;rSize=0;fontSize=17;fontColor=#666666;align=left;" vertex="1" parent="zfBXquAkik9O-GY_uFJq-1">
          <mxGeometry x="130" y="60" width="250" height="26" as="geometry" />
        </mxCell>
        <mxCell id="zfBXquAkik9O-GY_uFJq-4" value="" style="strokeWidth=1;shadow=0;dashed=0;align=center;html=1;shape=mxgraph.mockup.forms.rrect;rSize=0;strokeColor=#999999;fillColor=#ffffff;" vertex="1" parent="zfBXquAkik9O-GY_uFJq-1">
          <mxGeometry x="476" y="170" width="200" height="300" as="geometry" />
        </mxCell>
        <mxCell id="zfBXquAkik9O-GY_uFJq-5" value="Sign In" style="strokeWidth=1;shadow=0;dashed=0;align=center;html=1;shape=mxgraph.mockup.forms.anchor;fontSize=12;fontColor=#666666;align=left;resizeWidth=1;spacingLeft=0;" vertex="1" parent="zfBXquAkik9O-GY_uFJq-4">
          <mxGeometry width="100" height="20" relative="1" as="geometry">
            <mxPoint x="10" y="10" as="offset" />
          </mxGeometry>
        </mxCell>
        <mxCell id="zfBXquAkik9O-GY_uFJq-6" value="" style="shape=line;strokeColor=#ddeeff;strokeWidth=2;html=1;resizeWidth=1;" vertex="1" parent="zfBXquAkik9O-GY_uFJq-4">
          <mxGeometry width="180" height="10" relative="1" as="geometry">
            <mxPoint x="10" y="30" as="offset" />
          </mxGeometry>
        </mxCell>
        <mxCell id="zfBXquAkik9O-GY_uFJq-7" value="User Name:" style="strokeWidth=1;shadow=0;dashed=0;align=center;html=1;shape=mxgraph.mockup.forms.anchor;fontSize=12;fontColor=#666666;align=left;resizeWidth=1;spacingLeft=0;" vertex="1" parent="zfBXquAkik9O-GY_uFJq-4">
          <mxGeometry width="100" height="20" relative="1" as="geometry">
            <mxPoint x="10" y="40" as="offset" />
          </mxGeometry>
        </mxCell>
        <mxCell id="zfBXquAkik9O-GY_uFJq-8" value="johndoe" style="strokeWidth=1;shadow=0;dashed=0;align=center;html=1;shape=mxgraph.mockup.forms.rrect;rSize=0;strokeColor=#999999;fontColor=#666666;align=left;spacingLeft=5;resizeWidth=1;" vertex="1" parent="zfBXquAkik9O-GY_uFJq-4">
          <mxGeometry width="150" height="25" relative="1" as="geometry">
            <mxPoint x="10" y="60" as="offset" />
          </mxGeometry>
        </mxCell>
        <mxCell id="zfBXquAkik9O-GY_uFJq-9" value="Password:" style="strokeWidth=1;shadow=0;dashed=0;align=center;html=1;shape=mxgraph.mockup.forms.anchor;fontSize=12;fontColor=#666666;align=left;resizeWidth=1;spacingLeft=0;" vertex="1" parent="zfBXquAkik9O-GY_uFJq-4">
          <mxGeometry width="100" height="20" relative="1" as="geometry">
            <mxPoint x="10" y="95" as="offset" />
          </mxGeometry>
        </mxCell>
        <mxCell id="zfBXquAkik9O-GY_uFJq-10" value="********" style="strokeWidth=1;shadow=0;dashed=0;align=center;html=1;shape=mxgraph.mockup.forms.rrect;rSize=0;strokeColor=#999999;fontColor=#666666;align=left;spacingLeft=5;resizeWidth=1;" vertex="1" parent="zfBXquAkik9O-GY_uFJq-4">
          <mxGeometry width="150" height="25" relative="1" as="geometry">
            <mxPoint x="10" y="115" as="offset" />
          </mxGeometry>
        </mxCell>
        <mxCell id="zfBXquAkik9O-GY_uFJq-11" value="SIGN IN" style="strokeWidth=1;shadow=0;dashed=0;align=center;html=1;shape=mxgraph.mockup.forms.rrect;rSize=5;strokeColor=none;fontColor=#ffffff;fillColor=#66bbff;fontSize=16;fontStyle=1;" vertex="1" parent="zfBXquAkik9O-GY_uFJq-4">
          <mxGeometry y="1" width="80" height="30" relative="1" as="geometry">
            <mxPoint x="20" y="-150" as="offset" />
          </mxGeometry>
        </mxCell>
        <mxCell id="zfBXquAkik9O-GY_uFJq-12" value="Forgot Password?" style="strokeWidth=1;shadow=0;dashed=0;align=center;html=1;shape=mxgraph.mockup.forms.anchor;fontSize=12;fontColor=#9999ff;align=left;spacingLeft=0;fontStyle=4;resizeWidth=1;" vertex="1" parent="zfBXquAkik9O-GY_uFJq-4">
          <mxGeometry y="1" width="150" height="20" relative="1" as="geometry">
            <mxPoint x="10" y="-110" as="offset" />
          </mxGeometry>
        </mxCell>
        <mxCell id="zfBXquAkik9O-GY_uFJq-13" value="" style="shape=line;strokeColor=#ddeeff;strokeWidth=2;html=1;resizeWidth=1;" vertex="1" parent="zfBXquAkik9O-GY_uFJq-4">
          <mxGeometry y="1" width="180" height="10" relative="1" as="geometry">
            <mxPoint x="10" y="-90" as="offset" />
          </mxGeometry>
        </mxCell>
        <mxCell id="zfBXquAkik9O-GY_uFJq-14" value="New User" style="strokeWidth=1;shadow=0;dashed=0;align=center;html=1;shape=mxgraph.mockup.forms.anchor;fontSize=12;fontColor=#666666;align=left;spacingLeft=0;resizeWidth=1;" vertex="1" parent="zfBXquAkik9O-GY_uFJq-4">
          <mxGeometry y="1" width="150" height="20" relative="1" as="geometry">
            <mxPoint x="10" y="-70" as="offset" />
          </mxGeometry>
        </mxCell>
        <mxCell id="zfBXquAkik9O-GY_uFJq-15" value="SIGN UP" style="strokeWidth=1;shadow=0;dashed=0;align=center;html=1;shape=mxgraph.mockup.forms.rrect;rSize=5;strokeColor=none;fontColor=#ffffff;fillColor=#66bbff;fontSize=16;fontStyle=1;" vertex="1" parent="zfBXquAkik9O-GY_uFJq-4">
          <mxGeometry y="1" width="80" height="30" relative="1" as="geometry">
            <mxPoint x="20" y="-50" as="offset" />
          </mxGeometry>
        </mxCell>
        <mxCell id="zfBXquAkik9O-GY_uFJq-16" value="" style="strokeWidth=1;shadow=0;dashed=0;align=center;html=1;shape=mxgraph.mockup.forms.rrect;rSize=5;strokeColor=#999999;fillColor=#ffffff;" vertex="1" parent="zfBXquAkik9O-GY_uFJq-1">
          <mxGeometry x="86" y="170" width="314" height="300" as="geometry" />
        </mxCell>
        <mxCell id="zfBXquAkik9O-GY_uFJq-17" value="October 2014" style="strokeWidth=1;shadow=0;dashed=0;align=center;html=1;shape=mxgraph.mockup.forms.anchor;fontColor=#999999;" vertex="1" parent="zfBXquAkik9O-GY_uFJq-16">
          <mxGeometry x="58.875" y="13.714285714285714" width="196.25" height="34.285714285714285" as="geometry" />
        </mxCell>
        <mxCell id="zfBXquAkik9O-GY_uFJq-18" value="&lt;" style="strokeWidth=1;shadow=0;dashed=0;align=center;html=1;shape=mxgraph.mockup.forms.rrect;rSize=4;strokeColor=#999999;fontColor=#008cff;fontSize=19;fontStyle=1;" vertex="1" parent="zfBXquAkik9O-GY_uFJq-16">
          <mxGeometry x="15.7" y="13.714285714285714" width="49.0625" height="34.285714285714285" as="geometry" />
        </mxCell>
        <mxCell id="zfBXquAkik9O-GY_uFJq-19" value="&gt;" style="strokeWidth=1;shadow=0;dashed=0;align=center;html=1;shape=mxgraph.mockup.forms.rrect;rSize=4;strokeColor=#999999;fontColor=#008cff;fontSize=19;fontStyle=1;" vertex="1" parent="zfBXquAkik9O-GY_uFJq-16">
          <mxGeometry x="249.23749999999998" y="13.714285714285714" width="49.0625" height="34.285714285714285" as="geometry" />
        </mxCell>
        <mxCell id="zfBXquAkik9O-GY_uFJq-20" value="Mo" style="strokeWidth=1;shadow=0;dashed=0;align=center;html=1;shape=mxgraph.mockup.forms.anchor;fontColor=#999999;" vertex="1" parent="zfBXquAkik9O-GY_uFJq-16">
          <mxGeometry x="19.625" y="48" width="39.25" height="34.285714285714285" as="geometry" />
        </mxCell>
        <mxCell id="zfBXquAkik9O-GY_uFJq-21" value="Tu" style="strokeWidth=1;shadow=0;dashed=0;align=center;html=1;shape=mxgraph.mockup.forms.anchor;fontColor=#999999;" vertex="1" parent="zfBXquAkik9O-GY_uFJq-16">
          <mxGeometry x="58.875" y="48" width="39.25" height="34.285714285714285" as="geometry" />
        </mxCell>
        <mxCell id="zfBXquAkik9O-GY_uFJq-22" value="We" style="strokeWidth=1;shadow=0;dashed=0;align=center;html=1;shape=mxgraph.mockup.forms.anchor;fontColor=#999999;" vertex="1" parent="zfBXquAkik9O-GY_uFJq-16">
          <mxGeometry x="98.125" y="48" width="39.25" height="34.285714285714285" as="geometry" />
        </mxCell>
        <mxCell id="zfBXquAkik9O-GY_uFJq-23" value="Th" style="strokeWidth=1;shadow=0;dashed=0;align=center;html=1;shape=mxgraph.mockup.forms.anchor;fontColor=#999999;" vertex="1" parent="zfBXquAkik9O-GY_uFJq-16">
          <mxGeometry x="137.375" y="48" width="39.25" height="34.285714285714285" as="geometry" />
        </mxCell>
        <mxCell id="zfBXquAkik9O-GY_uFJq-24" value="Fr" style="strokeWidth=1;shadow=0;dashed=0;align=center;html=1;shape=mxgraph.mockup.forms.anchor;fontColor=#999999;" vertex="1" parent="zfBXquAkik9O-GY_uFJq-16">
          <mxGeometry x="176.625" y="48" width="39.25" height="34.285714285714285" as="geometry" />
        </mxCell>
        <mxCell id="zfBXquAkik9O-GY_uFJq-25" value="Sa" style="strokeWidth=1;shadow=0;dashed=0;align=center;html=1;shape=mxgraph.mockup.forms.anchor;fontColor=#999999;" vertex="1" parent="zfBXquAkik9O-GY_uFJq-16">
          <mxGeometry x="215.875" y="48" width="39.25" height="34.285714285714285" as="geometry" />
        </mxCell>
        <mxCell id="zfBXquAkik9O-GY_uFJq-26" value="Su" style="strokeWidth=1;shadow=0;dashed=0;align=center;html=1;shape=mxgraph.mockup.forms.anchor;fontColor=#999999;" vertex="1" parent="zfBXquAkik9O-GY_uFJq-16">
          <mxGeometry x="255.125" y="48" width="39.25" height="34.285714285714285" as="geometry" />
        </mxCell>
        <mxCell id="zfBXquAkik9O-GY_uFJq-27" value="1" style="strokeWidth=1;shadow=0;dashed=0;align=center;html=1;shape=mxgraph.mockup.forms.rrect;rSize=0;strokeColor=#999999;fontColor=#999999;" vertex="1" parent="zfBXquAkik9O-GY_uFJq-16">
          <mxGeometry x="19.625" y="82.28571428571428" width="39.25" height="34.285714285714285" as="geometry" />
        </mxCell>
        <mxCell id="zfBXquAkik9O-GY_uFJq-28" value="2" style="strokeWidth=1;shadow=0;dashed=0;align=center;html=1;shape=mxgraph.mockup.forms.rrect;rSize=0;strokeColor=#999999;fontColor=#999999;" vertex="1" parent="zfBXquAkik9O-GY_uFJq-16">
          <mxGeometry x="58.875" y="82.28571428571428" width="39.25" height="34.285714285714285" as="geometry" />
        </mxCell>
        <mxCell id="zfBXquAkik9O-GY_uFJq-29" value="3" style="strokeWidth=1;shadow=0;dashed=0;align=center;html=1;shape=mxgraph.mockup.forms.rrect;rSize=0;strokeColor=#999999;fontColor=#999999;" vertex="1" parent="zfBXquAkik9O-GY_uFJq-16">
          <mxGeometry x="98.125" y="82.28571428571428" width="39.25" height="34.285714285714285" as="geometry" />
        </mxCell>
        <mxCell id="zfBXquAkik9O-GY_uFJq-30" value="4" style="strokeWidth=1;shadow=0;dashed=0;align=center;html=1;shape=mxgraph.mockup.forms.rrect;rSize=0;strokeColor=#999999;fontColor=#999999;" vertex="1" parent="zfBXquAkik9O-GY_uFJq-16">
          <mxGeometry x="137.375" y="82.28571428571428" width="39.25" height="34.285714285714285" as="geometry" />
        </mxCell>
        <mxCell id="zfBXquAkik9O-GY_uFJq-31" value="5" style="strokeWidth=1;shadow=0;dashed=0;align=center;html=1;shape=mxgraph.mockup.forms.rrect;rSize=0;strokeColor=#999999;fontColor=#999999;" vertex="1" parent="zfBXquAkik9O-GY_uFJq-16">
          <mxGeometry x="176.625" y="82.28571428571428" width="39.25" height="34.285714285714285" as="geometry" />
        </mxCell>
        <mxCell id="zfBXquAkik9O-GY_uFJq-32" value="6" style="strokeWidth=1;shadow=0;dashed=0;align=center;html=1;shape=mxgraph.mockup.forms.rrect;rSize=0;strokeColor=#999999;fontColor=#999999;" vertex="1" parent="zfBXquAkik9O-GY_uFJq-16">
          <mxGeometry x="215.875" y="82.28571428571428" width="39.25" height="34.285714285714285" as="geometry" />
        </mxCell>
        <mxCell id="zfBXquAkik9O-GY_uFJq-33" value="7" style="strokeWidth=1;shadow=0;dashed=0;align=center;html=1;shape=mxgraph.mockup.forms.rrect;rSize=0;strokeColor=#999999;fontColor=#999999;" vertex="1" parent="zfBXquAkik9O-GY_uFJq-16">
          <mxGeometry x="255.125" y="82.28571428571428" width="39.25" height="34.285714285714285" as="geometry" />
        </mxCell>
        <mxCell id="zfBXquAkik9O-GY_uFJq-34" value="8" style="strokeWidth=1;shadow=0;dashed=0;align=center;html=1;shape=mxgraph.mockup.forms.rrect;rSize=0;strokeColor=#999999;fontColor=#999999;" vertex="1" parent="zfBXquAkik9O-GY_uFJq-16">
          <mxGeometry x="19.625" y="116.57142857142857" width="39.25" height="34.285714285714285" as="geometry" />
        </mxCell>
        <mxCell id="zfBXquAkik9O-GY_uFJq-35" value="9" style="strokeWidth=1;shadow=0;dashed=0;align=center;html=1;shape=mxgraph.mockup.forms.rrect;rSize=0;strokeColor=#999999;fontColor=#999999;" vertex="1" parent="zfBXquAkik9O-GY_uFJq-16">
          <mxGeometry x="58.875" y="116.57142857142857" width="39.25" height="34.285714285714285" as="geometry" />
        </mxCell>
        <mxCell id="zfBXquAkik9O-GY_uFJq-36" value="10" style="strokeWidth=1;shadow=0;dashed=0;align=center;html=1;shape=mxgraph.mockup.forms.rrect;rSize=0;strokeColor=#999999;fontColor=#999999;" vertex="1" parent="zfBXquAkik9O-GY_uFJq-16">
          <mxGeometry x="98.125" y="116.57142857142857" width="39.25" height="34.285714285714285" as="geometry" />
        </mxCell>
        <mxCell id="zfBXquAkik9O-GY_uFJq-37" value="11" style="strokeWidth=1;shadow=0;dashed=0;align=center;html=1;shape=mxgraph.mockup.forms.rrect;rSize=0;strokeColor=#999999;fontColor=#999999;" vertex="1" parent="zfBXquAkik9O-GY_uFJq-16">
          <mxGeometry x="137.375" y="116.57142857142857" width="39.25" height="34.285714285714285" as="geometry" />
        </mxCell>
        <mxCell id="zfBXquAkik9O-GY_uFJq-38" value="12" style="strokeWidth=1;shadow=0;dashed=0;align=center;html=1;shape=mxgraph.mockup.forms.rrect;rSize=0;strokeColor=#999999;fontColor=#999999;" vertex="1" parent="zfBXquAkik9O-GY_uFJq-16">
          <mxGeometry x="176.625" y="116.57142857142857" width="39.25" height="34.285714285714285" as="geometry" />
        </mxCell>
        <mxCell id="zfBXquAkik9O-GY_uFJq-39" value="13" style="strokeWidth=1;shadow=0;dashed=0;align=center;html=1;shape=mxgraph.mockup.forms.rrect;rSize=0;strokeColor=#999999;fontColor=#999999;" vertex="1" parent="zfBXquAkik9O-GY_uFJq-16">
          <mxGeometry x="215.875" y="116.57142857142857" width="39.25" height="34.285714285714285" as="geometry" />
        </mxCell>
        <mxCell id="zfBXquAkik9O-GY_uFJq-40" value="14" style="strokeWidth=1;shadow=0;dashed=0;align=center;html=1;shape=mxgraph.mockup.forms.rrect;rSize=0;strokeColor=#999999;fontColor=#999999;" vertex="1" parent="zfBXquAkik9O-GY_uFJq-16">
          <mxGeometry x="255.125" y="116.57142857142857" width="39.25" height="34.285714285714285" as="geometry" />
        </mxCell>
        <mxCell id="zfBXquAkik9O-GY_uFJq-41" value="15" style="strokeWidth=1;shadow=0;dashed=0;align=center;html=1;shape=mxgraph.mockup.forms.rrect;rSize=0;strokeColor=#999999;fontColor=#999999;" vertex="1" parent="zfBXquAkik9O-GY_uFJq-16">
          <mxGeometry x="19.625" y="150.85714285714286" width="39.25" height="34.285714285714285" as="geometry" />
        </mxCell>
        <mxCell id="zfBXquAkik9O-GY_uFJq-42" value="16" style="strokeWidth=1;shadow=0;dashed=0;align=center;html=1;shape=mxgraph.mockup.forms.rrect;rSize=0;strokeColor=#999999;fontColor=#999999;" vertex="1" parent="zfBXquAkik9O-GY_uFJq-16">
          <mxGeometry x="58.875" y="150.85714285714286" width="39.25" height="34.285714285714285" as="geometry" />
        </mxCell>
        <mxCell id="zfBXquAkik9O-GY_uFJq-43" value="17" style="strokeWidth=1;shadow=0;dashed=0;align=center;html=1;shape=mxgraph.mockup.forms.rrect;rSize=0;strokeColor=#999999;fontColor=#999999;" vertex="1" parent="zfBXquAkik9O-GY_uFJq-16">
          <mxGeometry x="98.125" y="150.85714285714286" width="39.25" height="34.285714285714285" as="geometry" />
        </mxCell>
        <mxCell id="zfBXquAkik9O-GY_uFJq-44" value="18" style="strokeWidth=1;shadow=0;dashed=0;align=center;html=1;shape=mxgraph.mockup.forms.rrect;rSize=0;strokeColor=#999999;fontColor=#999999;" vertex="1" parent="zfBXquAkik9O-GY_uFJq-16">
          <mxGeometry x="137.375" y="150.85714285714286" width="39.25" height="34.285714285714285" as="geometry" />
        </mxCell>
        <mxCell id="zfBXquAkik9O-GY_uFJq-45" value="19" style="strokeWidth=1;shadow=0;dashed=0;align=center;html=1;shape=mxgraph.mockup.forms.rrect;rSize=0;strokeColor=#999999;fontColor=#999999;" vertex="1" parent="zfBXquAkik9O-GY_uFJq-16">
          <mxGeometry x="176.625" y="150.85714285714286" width="39.25" height="34.285714285714285" as="geometry" />
        </mxCell>
        <mxCell id="zfBXquAkik9O-GY_uFJq-46" value="20" style="strokeWidth=1;shadow=0;dashed=0;align=center;html=1;shape=mxgraph.mockup.forms.rrect;rSize=0;strokeColor=#999999;fontColor=#999999;" vertex="1" parent="zfBXquAkik9O-GY_uFJq-16">
          <mxGeometry x="215.875" y="150.85714285714286" width="39.25" height="34.285714285714285" as="geometry" />
        </mxCell>
        <mxCell id="zfBXquAkik9O-GY_uFJq-47" value="21" style="strokeWidth=1;shadow=0;dashed=0;align=center;html=1;shape=mxgraph.mockup.forms.rrect;rSize=0;strokeColor=#999999;fontColor=#999999;" vertex="1" parent="zfBXquAkik9O-GY_uFJq-16">
          <mxGeometry x="255.125" y="150.85714285714286" width="39.25" height="34.285714285714285" as="geometry" />
        </mxCell>
        <mxCell id="zfBXquAkik9O-GY_uFJq-48" value="22" style="strokeWidth=1;shadow=0;dashed=0;align=center;html=1;shape=mxgraph.mockup.forms.rrect;rSize=0;strokeColor=#999999;fontColor=#999999;" vertex="1" parent="zfBXquAkik9O-GY_uFJq-16">
          <mxGeometry x="19.625" y="185.14285714285714" width="39.25" height="34.285714285714285" as="geometry" />
        </mxCell>
        <mxCell id="zfBXquAkik9O-GY_uFJq-49" value="23" style="strokeWidth=1;shadow=0;dashed=0;align=center;html=1;shape=mxgraph.mockup.forms.rrect;rSize=0;strokeColor=#999999;fontColor=#999999;" vertex="1" parent="zfBXquAkik9O-GY_uFJq-16">
          <mxGeometry x="58.875" y="185.14285714285714" width="39.25" height="34.285714285714285" as="geometry" />
        </mxCell>
        <mxCell id="zfBXquAkik9O-GY_uFJq-50" value="25" style="strokeWidth=1;shadow=0;dashed=0;align=center;html=1;shape=mxgraph.mockup.forms.rrect;rSize=0;strokeColor=#999999;fontColor=#999999;" vertex="1" parent="zfBXquAkik9O-GY_uFJq-16">
          <mxGeometry x="137.375" y="185.14285714285714" width="39.25" height="34.285714285714285" as="geometry" />
        </mxCell>
        <mxCell id="zfBXquAkik9O-GY_uFJq-51" value="26" style="strokeWidth=1;shadow=0;dashed=0;align=center;html=1;shape=mxgraph.mockup.forms.rrect;rSize=0;strokeColor=#999999;fontColor=#999999;" vertex="1" parent="zfBXquAkik9O-GY_uFJq-16">
          <mxGeometry x="176.625" y="185.14285714285714" width="39.25" height="34.285714285714285" as="geometry" />
        </mxCell>
        <mxCell id="zfBXquAkik9O-GY_uFJq-52" value="27" style="strokeWidth=1;shadow=0;dashed=0;align=center;html=1;shape=mxgraph.mockup.forms.rrect;rSize=0;strokeColor=#999999;fontColor=#999999;" vertex="1" parent="zfBXquAkik9O-GY_uFJq-16">
          <mxGeometry x="215.875" y="185.14285714285714" width="39.25" height="34.285714285714285" as="geometry" />
        </mxCell>
        <mxCell id="zfBXquAkik9O-GY_uFJq-53" value="28" style="strokeWidth=1;shadow=0;dashed=0;align=center;html=1;shape=mxgraph.mockup.forms.rrect;rSize=0;strokeColor=#999999;fontColor=#999999;" vertex="1" parent="zfBXquAkik9O-GY_uFJq-16">
          <mxGeometry x="255.125" y="185.14285714285714" width="39.25" height="34.285714285714285" as="geometry" />
        </mxCell>
        <mxCell id="zfBXquAkik9O-GY_uFJq-54" value="29" style="strokeWidth=1;shadow=0;dashed=0;align=center;html=1;shape=mxgraph.mockup.forms.rrect;rSize=0;strokeColor=#999999;fontColor=#999999;" vertex="1" parent="zfBXquAkik9O-GY_uFJq-16">
          <mxGeometry x="19.625" y="219.42857142857142" width="39.25" height="34.285714285714285" as="geometry" />
        </mxCell>
        <mxCell id="zfBXquAkik9O-GY_uFJq-55" value="30" style="strokeWidth=1;shadow=0;dashed=0;align=center;html=1;shape=mxgraph.mockup.forms.rrect;rSize=0;strokeColor=#999999;fontColor=#999999;" vertex="1" parent="zfBXquAkik9O-GY_uFJq-16">
          <mxGeometry x="58.875" y="219.42857142857142" width="39.25" height="34.285714285714285" as="geometry" />
        </mxCell>
        <mxCell id="zfBXquAkik9O-GY_uFJq-56" value="31" style="strokeWidth=1;shadow=0;dashed=0;align=center;html=1;shape=mxgraph.mockup.forms.rrect;rSize=0;strokeColor=#999999;fontColor=#999999;" vertex="1" parent="zfBXquAkik9O-GY_uFJq-16">
          <mxGeometry x="98.125" y="219.42857142857142" width="39.25" height="34.285714285714285" as="geometry" />
        </mxCell>
        <mxCell id="zfBXquAkik9O-GY_uFJq-57" value="1" style="strokeWidth=1;shadow=0;dashed=0;align=center;html=1;shape=mxgraph.mockup.forms.rrect;rSize=0;strokeColor=#999999;fontColor=#999999;fillColor=#ddeeff;" vertex="1" parent="zfBXquAkik9O-GY_uFJq-16">
          <mxGeometry x="137.375" y="219.42857142857142" width="39.25" height="34.285714285714285" as="geometry" />
        </mxCell>
        <mxCell id="zfBXquAkik9O-GY_uFJq-58" value="2" style="strokeWidth=1;shadow=0;dashed=0;align=center;html=1;shape=mxgraph.mockup.forms.rrect;rSize=0;strokeColor=#999999;fontColor=#999999;fillColor=#ddeeff;" vertex="1" parent="zfBXquAkik9O-GY_uFJq-16">
          <mxGeometry x="176.625" y="219.42857142857142" width="39.25" height="34.285714285714285" as="geometry" />
        </mxCell>
        <mxCell id="zfBXquAkik9O-GY_uFJq-59" value="3" style="strokeWidth=1;shadow=0;dashed=0;align=center;html=1;shape=mxgraph.mockup.forms.rrect;rSize=0;strokeColor=#999999;fontColor=#999999;fillColor=#ddeeff;" vertex="1" parent="zfBXquAkik9O-GY_uFJq-16">
          <mxGeometry x="215.875" y="219.42857142857142" width="39.25" height="34.285714285714285" as="geometry" />
        </mxCell>
        <mxCell id="zfBXquAkik9O-GY_uFJq-60" value="4" style="strokeWidth=1;shadow=0;dashed=0;align=center;html=1;shape=mxgraph.mockup.forms.rrect;rSize=0;strokeColor=#999999;fontColor=#999999;fillColor=#ddeeff;" vertex="1" parent="zfBXquAkik9O-GY_uFJq-16">
          <mxGeometry x="255.125" y="219.42857142857142" width="39.25" height="34.285714285714285" as="geometry" />
        </mxCell>
        <mxCell id="zfBXquAkik9O-GY_uFJq-61" value="5" style="strokeWidth=1;shadow=0;dashed=0;align=center;html=1;shape=mxgraph.mockup.forms.rrect;rSize=0;strokeColor=#999999;fontColor=#999999;fillColor=#ddeeff;" vertex="1" parent="zfBXquAkik9O-GY_uFJq-16">
          <mxGeometry x="19.625" y="253.7142857142857" width="39.25" height="34.285714285714285" as="geometry" />
        </mxCell>
        <mxCell id="zfBXquAkik9O-GY_uFJq-62" value="6" style="strokeWidth=1;shadow=0;dashed=0;align=center;html=1;shape=mxgraph.mockup.forms.rrect;rSize=0;strokeColor=#999999;fontColor=#999999;fillColor=#ddeeff;" vertex="1" parent="zfBXquAkik9O-GY_uFJq-16">
          <mxGeometry x="58.875" y="253.7142857142857" width="39.25" height="34.285714285714285" as="geometry" />
        </mxCell>
        <mxCell id="zfBXquAkik9O-GY_uFJq-63" value="7" style="strokeWidth=1;shadow=0;dashed=0;align=center;html=1;shape=mxgraph.mockup.forms.rrect;rSize=0;strokeColor=#999999;fontColor=#999999;fillColor=#ddeeff;" vertex="1" parent="zfBXquAkik9O-GY_uFJq-16">
          <mxGeometry x="98.125" y="253.7142857142857" width="39.25" height="34.285714285714285" as="geometry" />
        </mxCell>
        <mxCell id="zfBXquAkik9O-GY_uFJq-64" value="8" style="strokeWidth=1;shadow=0;dashed=0;align=center;html=1;shape=mxgraph.mockup.forms.rrect;rSize=0;strokeColor=#999999;fontColor=#999999;fillColor=#ddeeff;" vertex="1" parent="zfBXquAkik9O-GY_uFJq-16">
          <mxGeometry x="137.375" y="253.7142857142857" width="39.25" height="34.285714285714285" as="geometry" />
        </mxCell>
        <mxCell id="zfBXquAkik9O-GY_uFJq-65" value="9" style="strokeWidth=1;shadow=0;dashed=0;align=center;html=1;shape=mxgraph.mockup.forms.rrect;rSize=0;strokeColor=#999999;fontColor=#999999;fillColor=#ddeeff;" vertex="1" parent="zfBXquAkik9O-GY_uFJq-16">
          <mxGeometry x="176.625" y="253.7142857142857" width="39.25" height="34.285714285714285" as="geometry" />
        </mxCell>
        <mxCell id="zfBXquAkik9O-GY_uFJq-66" value="10" style="strokeWidth=1;shadow=0;dashed=0;align=center;html=1;shape=mxgraph.mockup.forms.rrect;rSize=0;strokeColor=#999999;fontColor=#999999;fillColor=#ddeeff;" vertex="1" parent="zfBXquAkik9O-GY_uFJq-16">
          <mxGeometry x="215.875" y="253.7142857142857" width="39.25" height="34.285714285714285" as="geometry" />
        </mxCell>
        <mxCell id="zfBXquAkik9O-GY_uFJq-67" value="11" style="strokeWidth=1;shadow=0;dashed=0;align=center;html=1;shape=mxgraph.mockup.forms.rrect;rSize=0;strokeColor=#999999;fontColor=#999999;fillColor=#ddeeff;" vertex="1" parent="zfBXquAkik9O-GY_uFJq-16">
          <mxGeometry x="255.125" y="253.7142857142857" width="39.25" height="34.285714285714285" as="geometry" />
        </mxCell>
        <mxCell id="zfBXquAkik9O-GY_uFJq-68" value="24" style="strokeWidth=1;shadow=0;dashed=0;align=center;html=1;shape=mxgraph.mockup.forms.rrect;rSize=0;strokeColor=#ff0000;fontColor=#ffffff;strokeWidth=2;fillColor=#008cff;" vertex="1" parent="zfBXquAkik9O-GY_uFJq-16">
          <mxGeometry x="98.125" y="185.14285714285714" width="39.25" height="34.285714285714285" as="geometry" />
        </mxCell>
      </root>
    </mxGraphModel>
  </diagram>
</mxfile>
